<?xml version="1.0" encoding="UTF-8"?>
<svg version="1.1" xmlns="http://www.w3.org/2000/svg" width="256" height="256">
<path d="M0 0 C0.6815918 0.21430664 1.36318359 0.42861328 2.06542969 0.64941406 C17.92928567 5.75886979 30.78318094 13.75568348 43 25 C43.9590625 25.86496094 44.918125 26.72992188 45.90625 27.62109375 C61.52956383 42.38863618 71.59226717 62.07486836 76 83 C76.33644531 84.52753906 76.33644531 84.52753906 76.6796875 86.0859375 C81.98373287 114.34996008 75.62718279 144.40189599 59.80078125 168.32421875 C57.61850695 171.29866243 55.35831367 174.16354026 53 177 C52.29101562 177.86109375 51.58203125 178.7221875 50.8515625 179.609375 C32.03762838 201.47972441 6.3891397 213.62318654 -22 217 C-54.81377441 218.85629953 -83.94332491 209.52154007 -108.63867188 187.54150391 C-128.04169808 169.7949784 -141.49875173 144.07713544 -143.22119141 117.59985352 C-143.33975267 113.87627301 -143.37997201 110.16295689 -143.375 106.4375 C-143.37478851 105.7793631 -143.37457703 105.1212262 -143.37435913 104.44314575 C-143.28512574 76.54438966 -133.12841366 51.98637068 -115 31 C-114.03320312 29.87851563 -114.03320312 29.87851563 -113.046875 28.734375 C-106.90433946 22.16453264 -99.35440929 17.10872487 -92 12 C-91.16726562 11.40960938 -90.33453125 10.81921875 -89.4765625 10.2109375 C-64.37748363 -6.25758092 -28.12872877 -9.11720513 0 0 Z " fill="#302B2B" transform="translate(161,22)"/>
<path d="M0 0 C9.63767081 3.32220052 14.61270241 13.33208683 19 22 C19 22.66 19 23.32 19 24 C19.73476562 23.67515625 20.46953125 23.3503125 21.2265625 23.015625 C26.62188244 21.56346849 31.81338943 21.71110762 37.375 21.75 C38.47328125 21.74226563 39.5715625 21.73453125 40.703125 21.7265625 C46.82252543 21.74123732 52.14352852 22.20458539 58 24 C58.11730469 23.27683594 58.23460937 22.55367187 58.35546875 21.80859375 C59.8826365 15.15384457 63.74098597 8.32376754 68 3 C70.625 1.84375 70.625 1.84375 73 1 C78.43523406 24.19507891 83.79402667 47.31231519 87.48974609 70.85791016 C87.98845872 73.92893004 88.54062145 76.98495545 89.11328125 80.04296875 C92.26222672 97.13000795 94 114.60691438 94 132 C91.04418415 133.66469024 88.66817186 134.3278247 85.29760742 134.6262207 C84.36547928 134.70921921 83.43335114 134.79221771 82.47297668 134.87773132 C81.46482407 134.9554628 80.45667145 135.03319427 79.41796875 135.11328125 C78.35845505 135.19757889 77.29894135 135.28187653 76.20732117 135.36872864 C65.03889311 136.18285204 53.89219957 136.26811651 42.69897461 136.20581055 C39.3037972 136.18745294 35.90889409 136.18530281 32.51367188 136.18554688 C14.89336301 136.15796694 -2.80859082 135.96826671 -20.3125 133.75 C-21.71532227 133.60498047 -21.71532227 133.60498047 -23.14648438 133.45703125 C-30.93703841 132.48252765 -37.30984059 129.70701616 -42.375 123.5 C-42.83648437 122.9534375 -43.29796875 122.406875 -43.7734375 121.84375 C-47.5038158 116.23630236 -47.77129972 110.54640637 -47 104 C-44.48079338 98.76780164 -40.22925942 94.61462971 -35 92 C-33.45976004 91.93049459 -31.91665012 91.91547643 -30.375 91.9375 C-29.55773437 91.94652344 -28.74046875 91.95554687 -27.8984375 91.96484375 C-27.27195312 91.97644531 -26.64546875 91.98804688 -26 92 C-26 95 -26 95 -27.93359375 97.19140625 C-28.75988281 97.97386719 -29.58617188 98.75632812 -30.4375 99.5625 C-34.73477098 103.42877938 -34.73477098 103.42877938 -36.3125 108.75 C-35.9148114 112.88596145 -34.62359816 114.80913737 -32 118 C-28.9355782 120.45153744 -26.09446824 121.27435004 -22.32421875 122.078125 C-21.51428467 122.2524707 -20.70435059 122.42681641 -19.86987305 122.60644531 C-19.25281494 122.73631836 -18.63575684 122.86619141 -18 123 C-17.98018066 122.29093506 -17.96036133 121.58187012 -17.93994141 120.85131836 C-17.23510491 96.83430679 -17.23510491 96.83430679 -15.58984375 86.2421875 C-14.88594226 81.52972729 -14.48757099 76.79066765 -14.04248047 72.0480957 C-11.92889857 49.80606224 -9.22179536 26.3934143 -1.8125 5.1875 C-1.46832031 4.19105469 -1.12414062 3.19460937 -0.76953125 2.16796875 C-0.38861328 1.09482422 -0.38861328 1.09482422 0 0 Z " fill="#FDFDFD" transform="translate(96,50)"/>
</svg>
